<svg width="227" height="69" viewBox="0 0 227 69" fill="none" xmlns="http://www.w3.org/2000/svg">
<path d="M59.3667 1.00852H59.2973V31.1472C56.1707 27.7605 53.2027 24.4859 50.372 21.3045C49.428 20.2419 48.4933 19.1872 47.5813 18.1472C46.6373 17.0699 45.6987 15.9965 44.7893 14.9445C40.7547 10.2685 36.8827 5.62586 33.1453 1.00852H31.2133L31.184 6.32186L34.0707 10.0325L47.504 25.2859C47.5333 25.3179 47.5587 25.3485 47.588 25.3819C48.536 26.4619 49.4333 27.4885 50.3 28.4885C52.3093 30.8032 54.112 32.9192 55.68 34.8045C57.66 37.1672 59.3827 39.3165 60.8773 41.2765H61.144H62.468H62.992V1.00852H59.3667Z" fill="white"/>
<path d="M31.1851 41.2768H34.8797V31.6915L31.1851 27.4728V41.2768Z" fill="white"/>
<path d="M51.1408 66.9577C50.9834 66.4377 50.8048 65.8524 50.6034 65.2031C50.4021 64.5524 50.1928 63.8724 49.9728 63.1591C49.7528 62.4471 49.5421 61.7684 49.3421 61.1231C49.1408 60.4791 48.9568 59.9004 48.7901 59.3884C48.6221 58.8777 48.4914 58.4924 48.3954 58.2351C48.5194 58.2551 48.6394 58.2697 48.7541 58.2844C48.8688 58.2991 48.9874 58.3071 49.1128 58.3071C49.2368 58.3071 49.3568 58.2991 49.4714 58.2844C49.5848 58.2697 49.7048 58.2551 49.8288 58.2351C50.0101 58.9617 50.1874 59.6431 50.3594 60.2777C50.5314 60.9137 50.7154 61.5577 50.9114 62.2124C51.1074 62.8684 51.3181 63.5551 51.5421 64.2777C51.7661 64.9991 52.0221 65.8151 52.3088 66.7217H52.3381C52.4234 66.4644 52.5434 66.1071 52.6968 65.6537C52.8488 65.2004 53.0168 64.6991 53.1981 64.1484C53.3794 63.5977 53.5688 63.0284 53.7648 62.4351C53.9608 61.8431 54.1461 61.2764 54.3234 60.7364C54.5008 60.1964 54.6554 59.7071 54.7888 59.2671C54.9234 58.8271 55.0194 58.4844 55.0768 58.2351C55.2488 58.2831 55.4061 58.3071 55.5488 58.3071C55.6928 58.3071 55.8501 58.2831 56.0221 58.2351C56.0888 58.4924 56.1941 58.8471 56.3368 59.2964C56.4808 59.7457 56.6394 60.2417 56.8101 60.7871C56.9821 61.3311 57.1674 61.9031 57.3634 62.4991C57.5581 63.0964 57.7448 63.6657 57.9221 64.2071C58.0981 64.7457 58.2608 65.2377 58.4088 65.6831C58.5568 66.1271 58.6741 66.4737 58.7608 66.7217H58.7888C58.8554 66.5111 58.9608 66.1844 59.1048 65.7404C59.2488 65.2951 59.4074 64.7937 59.5848 64.2351C59.7621 63.6751 59.9434 63.0884 60.1301 62.4711C60.3154 61.8551 60.4928 61.2657 60.6608 60.7084C60.8274 60.1497 60.9728 59.6497 61.0968 59.2097C61.2221 58.7697 61.3074 58.4444 61.3554 58.2351C61.4421 58.2551 61.5248 58.2697 61.6061 58.2844C61.6874 58.2991 61.7714 58.3071 61.8568 58.3071C61.9434 58.3071 62.0274 58.2991 62.1088 58.2844C62.1888 58.2697 62.2728 58.2551 62.3594 58.2351C62.2634 58.4551 62.1248 58.8191 61.9434 59.3244C61.7608 59.8311 61.5581 60.4097 61.3341 61.0591C61.1088 61.7084 60.8728 62.3951 60.6248 63.1164C60.3754 63.8377 60.1408 64.5284 59.9221 65.1884C59.7021 65.8471 59.5034 66.4391 59.3274 66.9657C59.1501 67.4911 59.0181 67.8777 58.9328 68.1271C58.7608 68.0791 58.5981 68.0551 58.4448 68.0551C58.2914 68.0551 58.1301 68.0791 57.9581 68.1271C57.5368 66.7791 57.1128 65.4297 56.6821 64.0764C56.2514 62.7244 55.7981 61.3364 55.3194 59.9124H55.2914C55.2141 60.1324 55.1141 60.4271 54.9901 60.7937C54.8661 61.1617 54.7221 61.5751 54.5594 62.0351C54.3968 62.4924 54.2274 62.9857 54.0514 63.5111C53.8741 64.0364 53.6954 64.5671 53.5128 65.1017C53.3314 65.6377 53.1528 66.1617 52.9754 66.6791C52.7994 67.1951 52.6394 67.6777 52.4954 68.1271C52.4101 68.1071 52.3261 68.0911 52.2448 68.0764C52.1634 68.0617 52.0794 68.0551 51.9941 68.0551C51.9074 68.0551 51.8248 68.0617 51.7434 68.0764C51.6621 68.0911 51.5781 68.1071 51.4928 68.1271C51.4154 67.8697 51.2981 67.4804 51.1408 66.9577Z" fill="white"/>
<path d="M63.95 61.933C63.95 61.3117 63.938 60.693 63.914 60.077C63.89 59.461 63.8647 58.8477 63.8353 58.2357C64.2647 58.2544 64.6927 58.2704 65.118 58.2851C65.5433 58.2984 65.9713 58.3064 66.4007 58.3064C66.8313 58.3064 67.2567 58.2984 67.6767 58.2851C68.098 58.2704 68.5233 58.2544 68.9527 58.2357C68.9247 58.3784 68.91 58.521 68.91 58.665C68.91 58.8077 68.9247 58.9517 68.9527 59.0944C68.6473 59.0757 68.3673 59.0544 68.1153 59.0304C67.862 59.0077 67.594 58.9851 67.3113 58.9651C67.03 58.9477 66.722 58.9331 66.3873 58.9224C66.0527 58.9131 65.6513 58.9077 65.1833 58.9077C65.1727 59.2144 65.162 59.5064 65.1473 59.7837C65.1327 60.0611 65.126 60.3757 65.126 60.7304C65.126 61.1024 65.1273 61.465 65.1327 61.8184C65.138 62.173 65.1407 62.4411 65.1407 62.6224C65.9807 62.6224 66.6673 62.6077 67.198 62.5784C67.7273 62.5504 68.202 62.5157 68.6233 62.4784C68.5953 62.6224 68.5807 62.7704 68.5807 62.9224C68.5807 63.0664 68.5953 63.209 68.6233 63.3517C68.3753 63.3237 68.086 63.3024 67.7553 63.289C67.426 63.2744 67.0967 63.2624 66.7673 63.2517C66.4367 63.2424 66.126 63.237 65.8353 63.2317C65.5433 63.2264 65.3113 63.2237 65.1407 63.2237C65.1407 63.309 65.138 63.4037 65.1327 63.5037C65.1273 63.6037 65.126 63.7304 65.126 63.8837V64.4424V65.3024C65.126 65.8477 65.1273 66.2957 65.1327 66.6504C65.138 67.0037 65.1447 67.2717 65.154 67.453C65.47 67.453 65.8073 67.4517 66.1647 67.4464C66.5233 67.441 66.8767 67.4344 67.226 67.4237C67.574 67.4144 67.9047 67.3984 68.2153 67.3744C68.526 67.3504 68.7953 67.3144 69.0247 67.2664C69.006 67.3344 68.994 67.4077 68.9887 67.489C68.9847 67.5704 68.982 67.6437 68.982 67.7117C68.982 67.8637 68.9967 68.0024 69.0247 68.1277C68.5953 68.1077 68.1673 68.0904 67.742 68.0757C67.3167 68.0624 66.8847 68.0557 66.4447 68.0557C66.0047 68.0557 65.57 68.0624 65.1407 68.0757C64.71 68.0904 64.2753 68.1077 63.8353 68.1277C63.8647 67.4957 63.89 66.8717 63.914 66.2557C63.938 65.6397 63.95 65.0197 63.95 64.3997V61.933Z" fill="white"/>
<path d="M76.2795 64.4135C76.2795 65.4548 76.3075 66.4681 76.3648 67.4521C76.5661 67.5001 76.8381 67.5375 77.1821 67.5601C77.5261 67.5841 77.8795 67.5961 78.2435 67.5961C78.7688 67.5961 79.2941 67.5348 79.8208 67.4095C80.3461 67.2855 80.8168 67.0521 81.2328 66.7081C81.6475 66.3641 81.9875 65.8921 82.2501 65.2948C82.5128 64.6988 82.6448 63.9268 82.6448 62.9801C82.6448 62.1495 82.5421 61.4655 82.3355 60.9308C82.1301 60.3948 81.8488 59.9721 81.4901 59.6615C81.1315 59.3508 80.7021 59.1361 80.1995 59.0161C79.6981 58.8961 79.1555 58.8361 78.5728 58.8361C78.1421 58.8361 77.7421 58.8508 77.3688 58.8801C76.9968 58.9081 76.6621 58.9415 76.3648 58.9801C76.3368 59.4401 76.3155 59.9201 76.3008 60.4215C76.2861 60.9228 76.2795 61.4321 76.2795 61.9468V64.4135ZM75.1035 61.9468C75.1035 61.3268 75.0915 60.7081 75.0675 60.0921C75.0435 59.4748 75.0181 58.8561 74.9888 58.2348C75.3528 58.2548 75.7128 58.2708 76.0715 58.2841C76.4301 58.2988 76.7901 58.3068 77.1541 58.3068C77.5168 58.3068 77.8781 58.2948 78.2355 58.2708C78.5941 58.2468 78.9555 58.2348 79.3181 58.2348C80.1595 58.2348 80.8781 58.3441 81.4755 58.5641C82.0728 58.7841 82.5635 59.0975 82.9461 59.5028C83.3275 59.9095 83.6075 60.4068 83.7835 60.9948C83.9608 61.5828 84.0501 62.2441 84.0501 62.9801C84.0501 63.9361 83.8848 64.7415 83.5555 65.3948C83.2248 66.0508 82.8048 66.5815 82.2928 66.9868C81.7821 67.3935 81.2181 67.6841 80.6021 67.8615C79.9848 68.0388 79.3941 68.1268 78.8315 68.1268C78.5061 68.1268 78.1861 68.1148 77.8701 68.0908C77.5555 68.0668 77.2341 68.0548 76.9101 68.0548C76.5848 68.0548 76.2648 68.0615 75.9488 68.0761C75.6341 68.0908 75.3141 68.1081 74.9888 68.1268C75.0181 67.5055 75.0435 66.8855 75.0675 66.2708C75.0915 65.6548 75.1035 65.0348 75.1035 64.4135V61.9468Z" fill="white"/>
<path d="M94.4864 61.1231C94.2851 60.5444 94.0064 60.0671 93.6477 59.6897C93.2891 59.3124 92.8691 59.0337 92.3864 58.8511C91.9037 58.6697 91.3797 58.5791 90.8157 58.5791C90.2517 58.5791 89.7317 58.6697 89.2531 58.8511C88.7757 59.0337 88.3571 59.3124 87.9984 59.6897C87.6411 60.0671 87.3611 60.5444 87.1597 61.1231C86.9597 61.7031 86.8597 62.3871 86.8597 63.1804C86.8597 63.9751 86.9597 64.6591 87.1597 65.2377C87.3611 65.8164 87.6411 66.2937 87.9984 66.6711C88.3571 67.0484 88.7757 67.3284 89.2531 67.5097C89.7317 67.6924 90.2517 67.7831 90.8157 67.7831C91.3797 67.7831 91.9037 67.6924 92.3864 67.5097C92.8691 67.3284 93.2891 67.0484 93.6477 66.6711C94.0064 66.2937 94.2851 65.8164 94.4864 65.2377C94.6864 64.6591 94.7877 63.9751 94.7877 63.1804C94.7877 62.3871 94.6864 61.7031 94.4864 61.1231ZM85.8477 61.0084C86.1117 60.3737 86.4797 59.8351 86.9531 59.3964C87.4264 58.9564 87.9891 58.6217 88.6437 58.3924C89.2984 58.1631 90.0224 58.0484 90.8157 58.0484C91.6091 58.0484 92.3357 58.1631 92.9944 58.3924C93.6544 58.6217 94.2211 58.9564 94.6944 59.3964C95.1677 59.8351 95.5357 60.3737 95.7971 61.0084C96.0611 61.6457 96.1917 62.3697 96.1917 63.1804C96.1917 63.9924 96.0611 64.7164 95.7971 65.3524C95.5357 65.9884 95.1677 66.5257 94.6944 66.9657C94.2211 67.4057 93.6544 67.7404 92.9944 67.9697C92.3357 68.1991 91.6091 68.3137 90.8157 68.3137C90.0224 68.3137 89.2984 68.1991 88.6437 67.9697C87.9891 67.7404 87.4264 67.4057 86.9531 66.9657C86.4797 66.5257 86.1117 65.9884 85.8477 65.3524C85.5851 64.7164 85.4544 63.9924 85.4544 63.1804C85.4544 62.3697 85.5851 61.6457 85.8477 61.0084" fill="white"/>
<path d="M102.184 61.9473C102.184 61.326 102.172 60.7073 102.148 60.0913C102.124 59.4753 102.099 58.8567 102.07 58.2353C102.194 58.254 102.314 58.27 102.428 58.2847C102.543 58.2993 102.658 58.3073 102.772 58.3073C102.887 58.3073 103.002 58.2993 103.116 58.2847C103.231 58.27 103.351 58.254 103.475 58.2353C103.446 58.8567 103.419 59.4753 103.396 60.0913C103.372 60.7073 103.36 61.326 103.36 61.9473V64.414C103.36 65.034 103.372 65.654 103.396 66.27C103.419 66.886 103.446 67.506 103.475 68.1273C103.351 68.1073 103.231 68.09 103.116 68.0767C103.002 68.062 102.887 68.0553 102.772 68.0553C102.658 68.0553 102.543 68.062 102.428 68.0767C102.314 68.09 102.194 68.1073 102.07 68.1273C102.099 67.506 102.124 66.886 102.148 66.27C102.172 65.654 102.184 65.034 102.184 64.414V61.9473Z" fill="white"/>
<path d="M107.087 58.0489C107.747 59.4063 108.413 60.7249 109.087 62.0049C109.76 63.2863 110.465 64.5996 111.201 65.9476C111.297 65.7663 111.436 65.5036 111.617 65.1596C111.799 64.8143 112.008 64.4249 112.248 63.9903C112.487 63.5556 112.745 63.0823 113.023 62.5716C113.299 62.0609 113.579 61.5436 113.861 61.0223C114.143 60.5023 114.42 59.9863 114.692 59.4743C114.964 58.9649 115.22 58.4876 115.459 58.0489H115.647C115.751 58.9649 115.849 59.8529 115.947 60.7076C116.043 61.5636 116.136 62.4049 116.227 63.2316C116.316 64.0583 116.409 64.8743 116.505 65.6836C116.603 66.4903 116.707 67.3049 116.821 68.1276C116.707 68.1076 116.595 68.0903 116.485 68.0769C116.373 68.0623 116.261 68.0556 116.147 68.0556C116.032 68.0556 115.92 68.0623 115.811 68.0769C115.701 68.0903 115.589 68.1076 115.475 68.1276C115.368 66.8369 115.263 65.5889 115.159 64.3849C115.053 63.1809 114.924 61.9623 114.771 60.7303H114.743C114.083 61.9329 113.435 63.1316 112.8 64.3209C112.164 65.5103 111.56 66.7556 110.987 68.0556H110.857C110.293 66.8596 109.696 65.6543 109.065 64.4356C108.435 63.2169 107.804 61.9809 107.172 60.7303H107.144C107.077 61.3223 107.004 61.9649 106.921 62.6569C106.84 63.3516 106.767 64.0329 106.7 64.7076C106.633 65.3809 106.576 66.0196 106.528 66.6223C106.48 67.2236 106.456 67.7263 106.456 68.1276C106.369 68.1076 106.287 68.0903 106.205 68.0769C106.124 68.0623 106.04 68.0556 105.955 68.0556C105.868 68.0556 105.784 68.0623 105.703 68.0769C105.621 68.0903 105.539 68.1076 105.452 68.1276C105.577 67.3343 105.705 66.5049 105.84 65.6396C105.973 64.7743 106.1 63.9076 106.22 63.0369C106.339 62.1676 106.453 61.3089 106.564 60.4649C106.673 59.6183 106.767 58.8129 106.843 58.0489H107.087Z" fill="white"/>
<path d="M120.091 63.0228C120.243 63.0615 120.411 63.0908 120.592 63.1081C120.775 63.1281 120.947 63.1375 121.109 63.1375C121.404 63.1375 121.711 63.1055 122.025 63.0375C122.34 62.9708 122.629 62.8481 122.893 62.6708C123.156 62.4948 123.371 62.2521 123.539 61.9401C123.705 61.6308 123.788 61.2308 123.788 60.7441C123.788 60.3321 123.731 59.9975 123.617 59.7401C123.503 59.4828 123.341 59.2815 123.136 59.1375C122.932 58.9948 122.68 58.8961 122.384 58.8441C122.088 58.7908 121.753 58.7655 121.381 58.7655H120.091V63.0228ZM118.915 61.9468C118.915 61.3268 118.903 60.7081 118.879 60.0921C118.855 59.4748 118.829 58.8561 118.8 58.2348C119.029 58.2548 119.261 58.2708 119.496 58.2841C119.729 58.2988 119.961 58.3068 120.191 58.3068C120.305 58.3068 120.444 58.3015 120.607 58.2921C120.769 58.2828 120.935 58.2748 121.101 58.2708C121.268 58.2668 121.428 58.2588 121.581 58.2495C121.733 58.2401 121.863 58.2348 121.968 58.2348C122.112 58.2348 122.288 58.2401 122.5 58.2495C122.709 58.2588 122.932 58.2868 123.165 58.3348C123.399 58.3841 123.631 58.4548 123.86 58.5508C124.091 58.6468 124.297 58.7841 124.484 58.9655C124.672 59.1481 124.821 59.3748 124.936 59.6468C125.051 59.9201 125.108 60.2561 125.108 60.6588C125.108 61.2881 124.972 61.8001 124.7 62.1921C124.427 62.5841 124.092 62.8881 123.696 63.1081C123.299 63.3281 122.879 63.4775 122.435 63.5535C121.991 63.6295 121.596 63.6681 121.252 63.6681C121.032 63.6681 120.832 63.6655 120.649 63.6615C120.468 63.6575 120.283 63.6441 120.091 63.6255V64.4135C120.091 65.0348 120.103 65.6548 120.125 66.2708C120.151 66.8855 120.176 67.5055 120.205 68.1268C120.08 68.1068 119.961 68.0908 119.847 68.0761C119.732 68.0615 119.617 68.0548 119.503 68.0548C119.388 68.0548 119.273 68.0615 119.159 68.0761C119.044 68.0908 118.924 68.1068 118.8 68.1268C118.829 67.5055 118.855 66.8855 118.879 66.2708C118.903 65.6548 118.915 65.0348 118.915 64.4135V61.9468Z" fill="white"/>
<path d="M135.114 61.1231C134.914 60.5444 134.634 60.0671 134.275 59.6897C133.917 59.3124 133.495 59.0337 133.014 58.8511C132.531 58.6697 132.007 58.5791 131.443 58.5791C130.879 58.5791 130.359 58.6697 129.881 58.8511C129.403 59.0337 128.985 59.3124 128.627 59.6897C128.267 60.0671 127.989 60.5444 127.789 61.1231C127.586 61.7031 127.486 62.3871 127.486 63.1804C127.486 63.9751 127.586 64.6591 127.789 65.2377C127.989 65.8164 128.267 66.2937 128.627 66.6711C128.985 67.0484 129.403 67.3284 129.881 67.5097C130.359 67.6924 130.879 67.7831 131.443 67.7831C132.007 67.7831 132.531 67.6924 133.014 67.5097C133.495 67.3284 133.917 67.0484 134.275 66.6711C134.634 66.2937 134.914 65.8164 135.114 65.2377C135.314 64.6591 135.415 63.9751 135.415 63.1804C135.415 62.3871 135.314 61.7031 135.114 61.1231ZM126.475 61.0084C126.739 60.3737 127.107 59.8351 127.581 59.3964C128.053 58.9564 128.617 58.6217 129.271 58.3924C129.926 58.1631 130.65 58.0484 131.443 58.0484C132.237 58.0484 132.963 58.1631 133.623 58.3924C134.282 58.6217 134.849 58.9564 135.321 59.3964C135.795 59.8351 136.162 60.3737 136.425 61.0084C136.689 61.6457 136.819 62.3697 136.819 63.1804C136.819 63.9924 136.689 64.7164 136.425 65.3524C136.162 65.9884 135.795 66.5257 135.321 66.9657C134.849 67.4057 134.282 67.7404 133.623 67.9697C132.963 68.1991 132.237 68.3137 131.443 68.3137C130.65 68.3137 129.926 68.1991 129.271 67.9697C128.617 67.7404 128.053 67.4057 127.581 66.9657C127.107 66.5257 126.739 65.9884 126.475 65.3524C126.213 64.7164 126.082 63.9924 126.082 63.1804C126.082 62.3697 126.213 61.6457 126.475 61.0084" fill="white"/>
<path d="M138.513 66.2195C138.589 66.3928 138.691 66.5675 138.819 66.7435C138.95 66.9195 139.107 67.0808 139.294 67.2235C139.481 67.3661 139.698 67.4835 139.946 67.5755C140.195 67.6661 140.471 67.7115 140.777 67.7115C141.094 67.7115 141.377 67.6555 141.63 67.5461C141.883 67.4368 142.098 67.2888 142.275 67.1021C142.453 66.9141 142.589 66.6955 142.685 66.4421C142.779 66.1901 142.827 65.9181 142.827 65.6328C142.827 65.1928 142.714 64.8435 142.49 64.5848C142.266 64.3275 141.986 64.1128 141.651 63.9408C141.318 63.7688 140.957 63.6115 140.57 63.4688C140.182 63.3235 139.821 63.1448 139.486 62.9301C139.151 62.7141 138.874 62.4408 138.649 62.1061C138.425 61.7715 138.313 61.3221 138.313 60.7581C138.313 60.3568 138.383 59.9915 138.527 59.6608C138.67 59.3315 138.878 59.0475 139.151 58.8075C139.423 58.5701 139.75 58.3835 140.133 58.2488C140.514 58.1155 140.945 58.0488 141.423 58.0488C141.881 58.0488 142.278 58.1035 142.613 58.2128C142.947 58.3235 143.258 58.4928 143.543 58.7221C143.458 58.8848 143.386 59.0568 143.329 59.2395C143.271 59.4195 143.214 59.6488 143.157 59.9261H142.985C142.937 59.7928 142.871 59.6461 142.785 59.4888C142.699 59.3315 142.589 59.1861 142.455 59.0515C142.321 58.9181 142.158 58.8061 141.967 58.7155C141.775 58.6248 141.546 58.5795 141.279 58.5795C141.011 58.5795 140.765 58.6221 140.541 58.7075C140.317 58.7941 140.121 58.9155 139.953 59.0741C139.786 59.2315 139.657 59.4195 139.566 59.6395C139.475 59.8595 139.429 60.0981 139.429 60.3568C139.429 60.8048 139.542 61.1595 139.766 61.4168C139.991 61.6755 140.27 61.8928 140.605 62.0701C140.939 62.2475 141.301 62.4048 141.689 62.5421C142.075 62.6821 142.435 62.8515 142.77 63.0515C143.105 63.2515 143.383 63.5115 143.609 63.8261C143.833 64.1408 143.946 64.5621 143.946 65.0875C143.946 65.5261 143.867 65.9435 143.709 66.3355C143.551 66.7275 143.322 67.0688 143.021 67.3595C142.719 67.6515 142.353 67.8835 141.918 68.0555C141.483 68.2275 140.987 68.3128 140.433 68.3128C139.841 68.3128 139.361 68.2275 138.993 68.0555C138.625 67.8835 138.317 67.6955 138.067 67.4955C138.154 67.2768 138.213 67.0781 138.247 66.9008C138.281 66.7248 138.313 66.4968 138.341 66.2195H138.513Z" fill="white"/>
<path d="M145.681 66.2195C145.757 66.3928 145.859 66.5675 145.987 66.7435C146.118 66.9195 146.275 67.0808 146.462 67.2235C146.649 67.3661 146.866 67.4835 147.114 67.5755C147.363 67.6661 147.639 67.7115 147.945 67.7115C148.262 67.7115 148.545 67.6555 148.798 67.5461C149.051 67.4368 149.266 67.2888 149.443 67.1021C149.621 66.9141 149.757 66.6955 149.853 66.4421C149.947 66.1901 149.995 65.9181 149.995 65.6328C149.995 65.1928 149.882 64.8435 149.658 64.5848C149.434 64.3275 149.154 64.1128 148.819 63.9408C148.486 63.7688 148.125 63.6115 147.738 63.4688C147.35 63.3235 146.989 63.1448 146.654 62.9301C146.319 62.7141 146.042 62.4408 145.817 62.1061C145.593 61.7715 145.481 61.3221 145.481 60.7581C145.481 60.3568 145.551 59.9915 145.695 59.6608C145.838 59.3315 146.046 59.0475 146.319 58.8075C146.591 58.5701 146.918 58.3835 147.301 58.2488C147.682 58.1155 148.113 58.0488 148.591 58.0488C149.049 58.0488 149.446 58.1035 149.781 58.2128C150.115 58.3235 150.426 58.4928 150.711 58.7221C150.626 58.8848 150.554 59.0568 150.497 59.2395C150.439 59.4195 150.382 59.6488 150.325 59.9261H150.153C150.105 59.7928 150.039 59.6461 149.953 59.4888C149.867 59.3315 149.757 59.1861 149.623 59.0515C149.489 58.9181 149.326 58.8061 149.135 58.7155C148.943 58.6248 148.714 58.5795 148.447 58.5795C148.179 58.5795 147.933 58.6221 147.709 58.7075C147.485 58.7941 147.289 58.9155 147.121 59.0741C146.954 59.2315 146.825 59.4195 146.734 59.6395C146.643 59.8595 146.597 60.0981 146.597 60.3568C146.597 60.8048 146.71 61.1595 146.934 61.4168C147.159 61.6755 147.438 61.8928 147.773 62.0701C148.107 62.2475 148.469 62.4048 148.857 62.5421C149.243 62.6821 149.603 62.8515 149.938 63.0515C150.273 63.2515 150.551 63.5115 150.777 63.8261C151.001 64.1408 151.114 64.5621 151.114 65.0875C151.114 65.5261 151.035 65.9435 150.877 66.3355C150.719 66.7275 150.49 67.0688 150.189 67.3595C149.887 67.6515 149.521 67.8835 149.086 68.0555C148.651 68.2275 148.155 68.3128 147.601 68.3128C147.009 68.3128 146.529 68.2275 146.161 68.0555C145.793 67.8835 145.485 67.6955 145.235 67.4955C145.322 67.2768 145.381 67.0781 145.415 66.9008C145.449 66.7248 145.481 66.4968 145.509 66.2195H145.681Z" fill="white"/>
<path d="M153.164 61.9473C153.164 61.326 153.152 60.7073 153.128 60.0913C153.104 59.4753 153.078 58.8567 153.049 58.2353C153.173 58.254 153.293 58.27 153.408 58.2847C153.522 58.2993 153.636 58.3073 153.75 58.3073C153.865 58.3073 153.981 58.2993 154.096 58.2847C154.21 58.27 154.329 58.254 154.454 58.2353C154.425 58.8567 154.4 59.4753 154.374 60.0913C154.352 60.7073 154.34 61.326 154.34 61.9473V64.414C154.34 65.034 154.352 65.654 154.374 66.27C154.4 66.886 154.425 67.506 154.454 68.1273C154.329 68.1073 154.21 68.09 154.096 68.0767C153.981 68.062 153.865 68.0553 153.75 68.0553C153.636 68.0553 153.522 68.062 153.408 68.0767C153.293 68.09 153.173 68.1073 153.049 68.1273C153.078 67.506 153.104 66.886 153.128 66.27C153.152 65.654 153.164 65.034 153.164 64.414V61.9473Z" fill="white"/>
<path d="M158.324 64.6283C158.324 65.1163 158.333 65.5989 158.352 66.0763C158.37 66.5536 158.39 67.0376 158.409 67.5243C158.59 67.5443 158.805 67.5603 159.054 67.5749C159.302 67.5896 159.557 67.5963 159.814 67.5963C160.121 67.5963 160.413 67.5443 160.696 67.4376C160.977 67.3336 161.224 67.1776 161.434 66.9723C161.644 66.7669 161.812 66.5163 161.936 66.2189C162.061 65.9243 162.122 65.5803 162.122 65.1883C162.122 64.7763 162.049 64.4416 161.901 64.1843C161.752 63.9269 161.54 63.7203 161.262 63.5683C160.985 63.4149 160.653 63.3096 160.266 63.2523C159.878 63.1949 159.446 63.1656 158.968 63.1656H158.324V64.6283ZM159.097 62.6363C159.432 62.6363 159.764 62.6016 160.094 62.5363C160.424 62.4696 160.718 62.3563 160.976 62.1989C161.234 62.0416 161.442 61.8309 161.6 61.5683C161.757 61.3056 161.836 60.9736 161.836 60.5709C161.836 60.1896 161.764 59.8776 161.621 59.6403C161.477 59.4003 161.296 59.2163 161.076 59.0883C160.856 58.9589 160.605 58.8736 160.324 58.8296C160.041 58.7869 159.766 58.7656 159.5 58.7656C159.25 58.7656 159.04 58.7723 158.868 58.7869C158.696 58.8016 158.544 58.8189 158.409 58.8363C158.39 59.2963 158.37 59.7496 158.352 60.1989C158.333 60.6483 158.324 61.1016 158.324 61.5603V62.6363H159.097ZM157.148 61.9336C157.148 61.3123 157.136 60.6936 157.112 60.0776C157.088 59.4603 157.062 58.8469 157.033 58.2349C157.282 58.2549 157.534 58.2696 157.793 58.2843C158.052 58.2989 158.304 58.3069 158.553 58.3069C158.801 58.3069 159.054 58.2949 159.313 58.2696C159.572 58.2469 159.824 58.2349 160.073 58.2349C160.484 58.2349 160.87 58.2669 161.234 58.3269C161.597 58.3896 161.917 58.5003 162.194 58.6576C162.47 58.8163 162.69 59.0283 162.853 59.2963C163.017 59.5629 163.097 59.8976 163.097 60.2989C163.097 61.0069 162.876 61.5603 162.43 61.9616C161.986 62.3643 161.406 62.6456 160.688 62.8083V62.8363C161.12 62.8563 161.504 62.9163 161.844 63.0163C162.182 63.1163 162.468 63.2656 162.702 63.4603C162.937 63.6563 163.12 63.9003 163.248 64.1923C163.377 64.4843 163.441 64.8336 163.441 65.2456C163.441 65.7803 163.332 66.2296 163.112 66.5936C162.892 66.9563 162.605 67.2523 162.252 67.4816C161.898 67.7123 161.506 67.8763 161.076 67.9763C160.645 68.0763 160.225 68.1269 159.814 68.1269C159.585 68.1269 159.353 68.1149 159.12 68.0909C158.885 68.0669 158.653 68.0549 158.424 68.0549C158.194 68.0549 157.962 68.0616 157.729 68.0763C157.494 68.0909 157.262 68.1069 157.033 68.1269C157.062 67.4949 157.088 66.8723 157.112 66.2563C157.136 65.6403 157.148 65.0203 157.148 64.3989V61.9336Z" fill="white"/>
<path d="M165.908 61.9473C165.908 61.326 165.896 60.7073 165.872 60.0913C165.848 59.4753 165.823 58.8567 165.794 58.2353C165.918 58.254 166.038 58.27 166.152 58.2847C166.267 58.2993 166.38 58.3073 166.495 58.3073C166.61 58.3073 166.726 58.2993 166.84 58.2847C166.955 58.27 167.074 58.254 167.199 58.2353C167.17 58.8567 167.144 59.4753 167.119 60.0913C167.096 60.7073 167.084 61.326 167.084 61.9473C167.084 63.1513 167.088 64.1967 167.099 65.0807C167.107 65.9647 167.116 66.7553 167.127 67.4527C167.806 67.4527 168.455 67.446 169.076 67.4313C169.698 67.418 170.367 67.3633 171.084 67.266C171.036 67.4287 171.012 67.5727 171.012 67.6967C171.012 67.8207 171.036 67.9647 171.084 68.1273C170.644 68.1073 170.204 68.09 169.766 68.0767C169.326 68.062 168.884 68.0553 168.446 68.0553C167.996 68.0553 167.554 68.062 167.119 68.0767C166.684 68.09 166.243 68.1073 165.794 68.1273C165.823 67.506 165.848 66.886 165.872 66.27C165.896 65.654 165.908 65.034 165.908 64.414V61.9473Z" fill="white"/>
<path d="M173.076 61.933C173.076 61.3117 173.064 60.693 173.04 60.077C173.016 59.461 172.991 58.8477 172.962 58.2357C173.391 58.2544 173.82 58.2704 174.244 58.2851C174.67 58.2984 175.098 58.3064 175.528 58.3064C175.958 58.3064 176.383 58.2984 176.804 58.2851C177.224 58.2704 177.65 58.2544 178.08 58.2357C178.05 58.3784 178.036 58.521 178.036 58.665C178.036 58.8077 178.05 58.9517 178.08 59.0944C177.774 59.0757 177.494 59.0544 177.24 59.0304C176.988 59.0077 176.719 58.9851 176.438 58.9651C176.156 58.9477 175.848 58.9331 175.514 58.9224C175.179 58.9131 174.776 58.9077 174.31 58.9077C174.299 59.2144 174.287 59.5064 174.272 59.7837C174.259 60.0611 174.252 60.3757 174.252 60.7304C174.252 61.1024 174.255 61.465 174.259 61.8184C174.264 62.173 174.267 62.4411 174.267 62.6224C175.107 62.6224 175.792 62.6077 176.324 62.5784C176.854 62.5504 177.328 62.5157 177.75 62.4784C177.72 62.6224 177.707 62.7704 177.707 62.9224C177.707 63.0664 177.72 63.209 177.75 63.3517C177.5 63.3237 177.212 63.3024 176.882 63.289C176.552 63.2744 176.223 63.2624 175.892 63.2517C175.563 63.2424 175.254 63.237 174.962 63.2317C174.67 63.2264 174.438 63.2237 174.267 63.2237C174.267 63.309 174.264 63.4037 174.259 63.5037C174.255 63.6037 174.252 63.7304 174.252 63.8837V64.4424V65.3024C174.252 65.8477 174.255 66.2957 174.259 66.6504C174.264 67.0037 174.271 67.2717 174.28 67.453C174.596 67.453 174.934 67.4517 175.291 67.4464C175.65 67.441 176.003 67.4344 176.352 67.4237C176.702 67.4144 177.031 67.3984 177.34 67.3744C177.652 67.3504 177.922 67.3144 178.152 67.2664C178.132 67.3344 178.12 67.4077 178.115 67.489C178.11 67.5704 178.108 67.6437 178.108 67.7117C178.108 67.8637 178.123 68.0024 178.152 68.1277C177.72 68.1077 177.294 68.0904 176.868 68.0757C176.442 68.0624 176.01 68.0557 175.571 68.0557C175.131 68.0557 174.696 68.0624 174.267 68.0757C173.836 68.0904 173.4 68.1077 172.962 68.1277C172.991 67.4957 173.016 66.8717 173.04 66.2557C173.064 65.6397 173.076 65.0197 173.076 64.3997V61.933Z" fill="white"/>
<path d="M135.386 41.278H139.274C141.914 34.058 144.457 27.2247 146.897 20.786C149.674 13.3793 152.229 6.78998 154.562 1.00865H150.867C149.211 6.07665 147.273 11.7367 145.041 18.0033C142.545 24.806 140.334 30.6927 138.41 35.6633C135.982 29.226 133.795 23.2953 131.847 17.8647C129.377 10.7233 127.461 5.11132 126.091 1.00865H120.641C123.257 7.82332 125.574 13.9967 127.587 19.5167C130.321 27.062 132.918 34.3113 135.386 41.278Z" fill="white"/>
<path d="M105.118 35.2507C102.483 38.5027 98.7967 40.1293 94.054 40.1293C89.2673 40.1293 85.5807 38.5253 82.9927 35.32C80.426 32.0893 79.1553 27.4747 79.178 21.4747C79.2007 15.404 80.518 10.708 83.1287 7.38666C85.7633 4.06533 89.474 2.40533 94.2607 2.40533C99.1167 2.40533 102.803 4.008 105.325 7.21466C107.843 10.4453 109.091 15.128 109.069 21.268C109.046 27.268 107.729 31.9293 105.118 35.2507ZM109.378 5.73599C107.222 3.50133 104.59 1.93866 101.51 1.008C99.3233 0.349331 96.9153 -2.54901e-06 94.2607 -2.54901e-06C91.65 -2.54901e-06 89.2673 0.349331 87.0873 1.008C83.986 1.94666 81.3073 3.53466 79.0753 5.80533C75.2953 9.65333 73.3833 14.8187 73.338 21.3C73.314 27.8533 75.1353 33.0413 78.8007 36.8653C80.7567 38.8693 83.1007 40.3307 85.8127 41.2787C88.2473 42.128 90.9767 42.568 94.0207 42.568C96.9313 42.568 99.5633 42.1253 101.943 41.2787C104.675 40.3027 107.07 38.7867 109.103 36.6933C112.929 32.7773 114.853 27.6467 114.875 21.3C114.898 14.7747 113.066 9.58666 109.378 5.73599" fill="white"/>
<path d="M169.869 13.3653C169.869 12.2653 169.881 11.2466 169.903 10.3066V7.11198C169.903 6.10931 169.913 5.18398 169.929 4.30664H184.204V1.00798H168.561H167.857H164.697H164.505V41.2773H167.857H168.561H184.204V37.9866V37.98H169.767C169.799 36.14 169.808 34.2773 169.767 32.3653V28.7226C169.767 27.1666 169.777 25.6426 169.8 24.1533L169.833 21.5786H182.699V18.2813H169.841L169.869 16.216V13.3653Z" fill="white"/>
<path d="M50.3321 40.0607V37.93C50.3321 36.3273 50.3201 35.158 50.2975 34.4247L47.4455 31.4367C42.5628 26.158 38.0588 21.138 33.8975 16.3513C33.4921 15.8847 33.0708 15.4073 32.6721 14.9447C32.1441 14.334 31.6428 13.7287 31.1215 13.118C27.6468 9.05932 24.2788 5.02333 21.0281 1.00866H20.0001H19.0948H18.1521V41.2767H21.8481V28.4927V13.534C21.8481 13.5113 21.8481 13.4913 21.8495 13.4673C21.8948 11.6113 21.9295 10.4673 21.9521 10.0327L30.9975 20.3033L33.8828 23.5793L35.3868 25.286C38.5695 28.906 41.2961 32.0793 43.5628 34.8047C45.5428 37.1673 47.2641 39.3167 48.7601 41.2767H50.3495C50.3441 40.8727 50.3441 40.502 50.3321 40.0607Z" fill="white"/>
<path d="M50.3497 1.00852H46.6551V9.69385L50.3497 13.9099V1.00852Z" fill="white"/>
<path d="M5.14133 41.2785H0V1.00919H5.14133V41.2785Z" fill="white"/>
<path d="M225.795 1.00852H221.443C219.838 3.94186 218.276 6.64852 216.766 9.11919C215.198 11.6779 213.5 14.3059 211.676 17.0032C209.852 13.9885 208.186 11.1819 206.679 8.58452C205.23 6.08719 203.879 3.56052 202.612 1.00852H196.219C198.334 4.35519 200.404 7.68585 202.424 10.9925C204.506 14.4059 206.579 17.8352 208.644 21.2872C206.38 24.7392 204.12 28.1712 201.859 31.5819C199.706 34.8325 197.492 38.0632 195.231 41.2765H199.564C201.111 38.4245 202.715 35.5792 204.388 32.7419C206.154 29.7472 208.046 26.7432 210.071 23.7272C212.095 26.7432 213.888 29.7472 215.455 32.7419C216.938 35.5792 218.434 38.4245 219.935 41.2765H226.548C224.274 37.7085 222.042 34.1392 219.86 30.5712C217.578 26.8419 215.308 23.0739 213.046 19.2632C215.07 16.0512 217.171 12.9365 219.354 9.92185C221.462 7.00852 223.61 4.03652 225.795 1.00852Z" fill="white"/>
</svg>
